<svg xmlns="http://www.w3.org/2000/svg" xmlns:xlink="http://www.w3.org/1999/xlink" version="1.1" width="612pt" height="792pt" viewBox="0 0 612 792">
<defs>
<clipPath id="clip_0">
<path transform="matrix(1,0,0,-1,0,792)" d="M.00000912 0H612V792H.00000912Z" fill-rule="evenodd"/>
</clipPath>
<clipPath id="clip_1">
<path transform="matrix(1,0,0,-1,0,792)" d="M63.024 351.77H549.574V739.19998H63.024Z" fill-rule="evenodd"/>
</clipPath>
<clipPath id="clip_2">
<path transform="matrix(1,0,0,-1,0,792)" d="M72.504 723.72H306.044V738.72H72.504Z" fill-rule="evenodd"/>
</clipPath>
<clipPath id="clip_3">
<path transform="matrix(1,0,0,-1,0,792)" d="M72.504 723.72H306.044V738.72H72.504Z" fill-rule="evenodd"/>
</clipPath>
<clipPath id="clip_4">
<path transform="matrix(1,0,0,-1,0,792)" d="M72.504 723.72H306.044V738.72H72.504Z" fill-rule="evenodd"/>
</clipPath>
<clipPath id="clip_5">
<path transform="matrix(1,0,0,-1,0,792)" d="M306.53 723.72H540.1V738.72H306.53Z" fill-rule="evenodd"/>
</clipPath>
<clipPath id="clip_6">
<path transform="matrix(1,0,0,-1,0,792)" d="M306.53 723.72H540.1V738.72H306.53Z" fill-rule="evenodd"/>
</clipPath>
<clipPath id="clip_7">
<path transform="matrix(1,0,0,-1,0,792)" d="M306.53 723.72H540.1V738.72H306.53Z" fill-rule="evenodd"/>
</clipPath>
<clipPath id="clip_8">
<path transform="matrix(1,0,0,-1,0,792)" d="M306.53 723.72H540.1V738.72H306.53Z" fill-rule="evenodd"/>
</clipPath>
<clipPath id="clip_9">
<path transform="matrix(1,0,0,-1,0,792)" d="M306.53 723.72H540.1V738.72H306.53Z" fill-rule="evenodd"/>
</clipPath>
<clipPath id="clip_10">
<path transform="matrix(1,0,0,-1,0,792)" d="M306.53 723.72H540.1V738.72H306.53Z" fill-rule="evenodd"/>
</clipPath>
<clipPath id="clip_11">
<path transform="matrix(1,0,0,-1,0,792)" d="M72.504 679.18H306.044V723.244H72.504Z" fill-rule="evenodd"/>
</clipPath>
<clipPath id="clip_12">
<path transform="matrix(1,0,0,-1,0,792)" d="M72.504 679.18H306.044V723.244H72.504Z" fill-rule="evenodd"/>
</clipPath>
<clipPath id="clip_13">
<path transform="matrix(1,0,0,-1,0,792)" d="M72.504 679.18H306.044V723.244H72.504Z" fill-rule="evenodd"/>
</clipPath>
<clipPath id="clip_14">
<path transform="matrix(1,0,0,-1,0,792)" d="M306.53 679.18H540.1V723.244H306.53Z" fill-rule="evenodd"/>
</clipPath>
<clipPath id="clip_15">
<path transform="matrix(1,0,0,-1,0,792)" d="M306.53 679.18H540.1V723.244H306.53Z" fill-rule="evenodd"/>
</clipPath>
<clipPath id="clip_16">
<path transform="matrix(1,0,0,-1,0,792)" d="M306.53 679.18H540.1V723.244H306.53Z" fill-rule="evenodd"/>
</clipPath>
<clipPath id="clip_17">
<path transform="matrix(1,0,0,-1,0,792)" d="M306.53 679.18H540.1V723.244H306.53Z" fill-rule="evenodd"/>
</clipPath>
<clipPath id="clip_18">
<path transform="matrix(1,0,0,-1,0,792)" d="M306.53 679.18H540.1V723.244H306.53Z" fill-rule="evenodd"/>
</clipPath>
<clipPath id="clip_19">
<path transform="matrix(1,0,0,-1,0,792)" d="M306.53 679.18H540.1V723.244H306.53Z" fill-rule="evenodd"/>
</clipPath>
<clipPath id="clip_20">
<path transform="matrix(1,0,0,-1,0,792)" d="M72.504 561.58H306.044V678.7H72.504Z" fill-rule="evenodd"/>
</clipPath>
<clipPath id="clip_21">
<path transform="matrix(1,0,0,-1,0,792)" d="M72.504 561.58H306.044V678.7H72.504Z" fill-rule="evenodd"/>
</clipPath>
<clipPath id="clip_22">
<path transform="matrix(1,0,0,-1,0,792)" d="M72.504 561.58H306.044V678.7H72.504Z" fill-rule="evenodd"/>
</clipPath>
<clipPath id="clip_23">
<path transform="matrix(1,0,0,-1,0,792)" d="M306.53 561.58H540.1V678.7H306.53Z" fill-rule="evenodd"/>
</clipPath>
<clipPath id="clip_24">
<path transform="matrix(1,0,0,-1,0,792)" d="M306.53 561.58H540.1V678.7H306.53Z" fill-rule="evenodd"/>
</clipPath>
<clipPath id="clip_25">
<path transform="matrix(1,0,0,-1,0,792)" d="M306.53 561.58H540.1V678.7H306.53Z" fill-rule="evenodd"/>
</clipPath>
<clipPath id="clip_26">
<path transform="matrix(1,0,0,-1,0,792)" d="M306.53 561.58H540.1V678.7H306.53Z" fill-rule="evenodd"/>
</clipPath>
<clipPath id="clip_27">
<path transform="matrix(1,0,0,-1,0,792)" d="M306.53 561.58H540.1V678.7H306.53Z" fill-rule="evenodd"/>
</clipPath>
<clipPath id="clip_28">
<path transform="matrix(1,0,0,-1,0,792)" d="M306.53 561.58H540.1V678.7H306.53Z" fill-rule="evenodd"/>
</clipPath>
<clipPath id="clip_29">
<path transform="matrix(1,0,0,-1,0,792)" d="M306.53 561.58H540.1V678.7H306.53Z" fill-rule="evenodd"/>
</clipPath>
<clipPath id="clip_30">
<path transform="matrix(1,0,0,-1,0,792)" d="M306.53 561.58H540.1V678.7H306.53Z" fill-rule="evenodd"/>
</clipPath>
<clipPath id="clip_31">
<path transform="matrix(1,0,0,-1,0,792)" d="M306.53 561.58H540.1V678.7H306.53Z" fill-rule="evenodd"/>
</clipPath>
<clipPath id="clip_32">
<path transform="matrix(1,0,0,-1,0,792)" d="M306.53 561.58H540.1V678.7H306.53Z" fill-rule="evenodd"/>
</clipPath>
<clipPath id="clip_33">
<path transform="matrix(1,0,0,-1,0,792)" d="M306.53 561.58H540.1V678.7H306.53Z" fill-rule="evenodd"/>
</clipPath>
<clipPath id="clip_34">
<path transform="matrix(1,0,0,-1,0,792)" d="M306.53 561.58H540.1V678.7H306.53Z" fill-rule="evenodd"/>
</clipPath>
<clipPath id="clip_35">
<path transform="matrix(1,0,0,-1,0,792)" d="M306.53 561.58H540.1V678.7H306.53Z" fill-rule="evenodd"/>
</clipPath>
<clipPath id="clip_36">
<path transform="matrix(1,0,0,-1,0,792)" d="M306.53 561.58H540.1V678.7H306.53Z" fill-rule="evenodd"/>
</clipPath>
<clipPath id="clip_37">
<path transform="matrix(1,0,0,-1,0,792)" d="M306.53 561.58H540.1V678.7H306.53Z" fill-rule="evenodd"/>
</clipPath>
<clipPath id="clip_38">
<path transform="matrix(1,0,0,-1,0,792)" d="M306.53 561.58H540.1V678.7H306.53Z" fill-rule="evenodd"/>
</clipPath>
<clipPath id="clip_39">
<path transform="matrix(1,0,0,-1,0,792)" d="M306.53 561.58H540.1V678.7H306.53Z" fill-rule="evenodd"/>
</clipPath>
<clipPath id="clip_40">
<path transform="matrix(1,0,0,-1,0,792)" d="M306.53 561.58H540.1V678.7H306.53Z" fill-rule="evenodd"/>
</clipPath>
<clipPath id="clip_41">
<path transform="matrix(1,0,0,-1,0,792)" d="M306.53 561.58H540.1V678.7H306.53Z" fill-rule="evenodd"/>
</clipPath>
<clipPath id="clip_42">
<path transform="matrix(1,0,0,-1,0,792)" d="M306.53 561.58H540.1V678.7H306.53Z" fill-rule="evenodd"/>
</clipPath>
<clipPath id="clip_43">
<path transform="matrix(1,0,0,-1,0,792)" d="M306.53 561.58H540.1V678.7H306.53Z" fill-rule="evenodd"/>
</clipPath>
<clipPath id="clip_44">
<path transform="matrix(1,0,0,-1,0,792)" d="M306.53 561.58H540.1V678.7H306.53Z" fill-rule="evenodd"/>
</clipPath>
<clipPath id="clip_45">
<path transform="matrix(1,0,0,-1,0,792)" d="M306.53 561.58H540.1V678.7H306.53Z" fill-rule="evenodd"/>
</clipPath>
<clipPath id="clip_46">
<path transform="matrix(1,0,0,-1,0,792)" d="M306.53 561.58H540.1V678.7H306.53Z" fill-rule="evenodd"/>
</clipPath>
<clipPath id="clip_47">
<path transform="matrix(1,0,0,-1,0,792)" d="M72.504 531.67H306.044V561.094H72.504Z" fill-rule="evenodd"/>
</clipPath>
<clipPath id="clip_48">
<path transform="matrix(1,0,0,-1,0,792)" d="M72.504 531.67H306.044V561.094H72.504Z" fill-rule="evenodd"/>
</clipPath>
<clipPath id="clip_49">
<path transform="matrix(1,0,0,-1,0,792)" d="M72.504 531.67H306.044V561.094H72.504Z" fill-rule="evenodd"/>
</clipPath>
<clipPath id="clip_50">
<path transform="matrix(1,0,0,-1,0,792)" d="M306.53 531.67H540.1V561.094H306.53Z" fill-rule="evenodd"/>
</clipPath>
<clipPath id="clip_51">
<path transform="matrix(1,0,0,-1,0,792)" d="M306.53 531.67H540.1V561.094H306.53Z" fill-rule="evenodd"/>
</clipPath>
<clipPath id="clip_52">
<path transform="matrix(1,0,0,-1,0,792)" d="M306.53 531.67H540.1V561.094H306.53Z" fill-rule="evenodd"/>
</clipPath>
<clipPath id="clip_53">
<path transform="matrix(1,0,0,-1,0,792)" d="M306.53 531.67H540.1V561.094H306.53Z" fill-rule="evenodd"/>
</clipPath>
<clipPath id="clip_54">
<path transform="matrix(1,0,0,-1,0,792)" d="M72.504 383.23H306.044V531.19H72.504Z" fill-rule="evenodd"/>
</clipPath>
<clipPath id="clip_55">
<path transform="matrix(1,0,0,-1,0,792)" d="M72.504 383.23H306.044V531.19H72.504Z" fill-rule="evenodd"/>
</clipPath>
<clipPath id="clip_56">
<path transform="matrix(1,0,0,-1,0,792)" d="M72.504 383.23H306.044V531.19H72.504Z" fill-rule="evenodd"/>
</clipPath>
<clipPath id="clip_57">
<path transform="matrix(1,0,0,-1,0,792)" d="M306.53 501.91H540.1V531.19H306.53Z" fill-rule="evenodd"/>
</clipPath>
<clipPath id="clip_58">
<path transform="matrix(1,0,0,-1,0,792)" d="M306.53 501.91H540.1V531.19H306.53Z" fill-rule="evenodd"/>
</clipPath>
<clipPath id="clip_59">
<path transform="matrix(1,0,0,-1,0,792)" d="M306.53 501.91H540.1V531.19H306.53Z" fill-rule="evenodd"/>
</clipPath>
<clipPath id="clip_60">
<path transform="matrix(1,0,0,-1,0,792)" d="M306.53 501.91H540.1V531.19H306.53Z" fill-rule="evenodd"/>
</clipPath>
<clipPath id="clip_61">
<path transform="matrix(1,0,0,-1,0,792)" d="M306.53 501.91H540.1V531.19H306.53Z" fill-rule="evenodd"/>
</clipPath>
<clipPath id="clip_62">
<path transform="matrix(1,0,0,-1,0,792)" d="M306.53 501.91H540.1V531.19H306.53Z" fill-rule="evenodd"/>
</clipPath>
<clipPath id="clip_63">
<path transform="matrix(1,0,0,-1,0,792)" d="M306.53 457.51H540.1V501.43H306.53Z" fill-rule="evenodd"/>
</clipPath>
<clipPath id="clip_64">
<path transform="matrix(1,0,0,-1,0,792)" d="M306.53 457.51H540.1V501.43H306.53Z" fill-rule="evenodd"/>
</clipPath>
<clipPath id="clip_65">
<path transform="matrix(1,0,0,-1,0,792)" d="M306.53 457.51H540.1V501.43H306.53Z" fill-rule="evenodd"/>
</clipPath>
<clipPath id="clip_66">
<path transform="matrix(1,0,0,-1,0,792)" d="M306.53 457.51H540.1V501.43H306.53Z" fill-rule="evenodd"/>
</clipPath>
<clipPath id="clip_67">
<path transform="matrix(1,0,0,-1,0,792)" d="M306.53 457.51H540.1V501.43H306.53Z" fill-rule="evenodd"/>
</clipPath>
<clipPath id="clip_68">
<path transform="matrix(1,0,0,-1,0,792)" d="M306.53 457.51H540.1V501.43H306.53Z" fill-rule="evenodd"/>
</clipPath>
<clipPath id="clip_69">
<path transform="matrix(1,0,0,-1,0,792)" d="M306.53 457.51H540.1V501.43H306.53Z" fill-rule="evenodd"/>
</clipPath>
<clipPath id="clip_70">
<path transform="matrix(1,0,0,-1,0,792)" d="M306.53 457.51H540.1V501.43H306.53Z" fill-rule="evenodd"/>
</clipPath>
<clipPath id="clip_71">
<path transform="matrix(1,0,0,-1,0,792)" d="M306.53 457.51H540.1V501.43H306.53Z" fill-rule="evenodd"/>
</clipPath>
<clipPath id="clip_72">
<path transform="matrix(1,0,0,-1,0,792)" d="M306.53 412.99H540.1V457.03H306.53Z" fill-rule="evenodd"/>
</clipPath>
<clipPath id="clip_73">
<path transform="matrix(1,0,0,-1,0,792)" d="M306.53 412.99H540.1V457.03H306.53Z" fill-rule="evenodd"/>
</clipPath>
<clipPath id="clip_74">
<path transform="matrix(1,0,0,-1,0,792)" d="M306.53 412.99H540.1V457.03H306.53Z" fill-rule="evenodd"/>
</clipPath>
<clipPath id="clip_75">
<path transform="matrix(1,0,0,-1,0,792)" d="M306.53 412.99H540.1V457.03H306.53Z" fill-rule="evenodd"/>
</clipPath>
<clipPath id="clip_76">
<path transform="matrix(1,0,0,-1,0,792)" d="M306.53 412.99H540.1V457.03H306.53Z" fill-rule="evenodd"/>
</clipPath>
<clipPath id="clip_77">
<path transform="matrix(1,0,0,-1,0,792)" d="M306.53 412.99H540.1V457.03H306.53Z" fill-rule="evenodd"/>
</clipPath>
<clipPath id="clip_78">
<path transform="matrix(1,0,0,-1,0,792)" d="M306.53 412.99H540.1V457.03H306.53Z" fill-rule="evenodd"/>
</clipPath>
<clipPath id="clip_79">
<path transform="matrix(1,0,0,-1,0,792)" d="M306.53 412.99H540.1V457.03H306.53Z" fill-rule="evenodd"/>
</clipPath>
<clipPath id="clip_80">
<path transform="matrix(1,0,0,-1,0,792)" d="M306.53 412.99H540.1V457.03H306.53Z" fill-rule="evenodd"/>
</clipPath>
<clipPath id="clip_81">
<path transform="matrix(1,0,0,-1,0,792)" d="M306.53 412.99H540.1V457.03H306.53Z" fill-rule="evenodd"/>
</clipPath>
<clipPath id="clip_82">
<path transform="matrix(1,0,0,-1,0,792)" d="M306.53 383.23H540.1V412.51H306.53Z" fill-rule="evenodd"/>
</clipPath>
<clipPath id="clip_83">
<path transform="matrix(1,0,0,-1,0,792)" d="M306.53 383.23H540.1V412.51H306.53Z" fill-rule="evenodd"/>
</clipPath>
<clipPath id="clip_84">
<path transform="matrix(1,0,0,-1,0,792)" d="M306.53 383.23H540.1V412.51H306.53Z" fill-rule="evenodd"/>
</clipPath>
<clipPath id="clip_85">
<path transform="matrix(1,0,0,-1,0,792)" d="M306.53 383.23H540.1V412.51H306.53Z" fill-rule="evenodd"/>
</clipPath>
<clipPath id="clip_86">
<path transform="matrix(1,0,0,-1,0,792)" d="M306.53 383.23H540.1V412.51H306.53Z" fill-rule="evenodd"/>
</clipPath>
<clipPath id="clip_87">
<path transform="matrix(1,0,0,-1,0,792)" d="M306.53 383.23H540.1V412.51H306.53Z" fill-rule="evenodd"/>
</clipPath>
<clipPath id="clip_88">
<path transform="matrix(1,0,0,-1,0,792)" d="M306.53 383.23H540.1V412.51H306.53Z" fill-rule="evenodd"/>
</clipPath>
<clipPath id="clip_89">
<path transform="matrix(1,0,0,-1,0,792)" d="M72.504 367.75H306.044V382.75H72.504Z" fill-rule="evenodd"/>
</clipPath>
<clipPath id="clip_90">
<path transform="matrix(1,0,0,-1,0,792)" d="M72.504 367.75H306.044V382.75H72.504Z" fill-rule="evenodd"/>
</clipPath>
<clipPath id="clip_91">
<path transform="matrix(1,0,0,-1,0,792)" d="M72.504 367.75H306.044V382.75H72.504Z" fill-rule="evenodd"/>
</clipPath>
<clipPath id="clip_92">
<path transform="matrix(1,0,0,-1,0,792)" d="M306.53 367.75H540.1V382.75H306.53Z" fill-rule="evenodd"/>
</clipPath>
<clipPath id="clip_93">
<path transform="matrix(1,0,0,-1,0,792)" d="M306.53 367.75H540.1V382.75H306.53Z" fill-rule="evenodd"/>
</clipPath>
<clipPath id="clip_94">
<path transform="matrix(1,0,0,-1,0,792)" d="M306.53 367.75H540.1V382.75H306.53Z" fill-rule="evenodd"/>
</clipPath>
<clipPath id="clip_95">
<path transform="matrix(1,0,0,-1,0,792)" d="M72.504 352.25H306.044V367.274H72.504Z" fill-rule="evenodd"/>
</clipPath>
<clipPath id="clip_96">
<path transform="matrix(1,0,0,-1,0,792)" d="M72.504 352.25H306.044V367.274H72.504Z" fill-rule="evenodd"/>
</clipPath>
<clipPath id="clip_97">
<path transform="matrix(1,0,0,-1,0,792)" d="M72.504 352.25H306.044V367.274H72.504Z" fill-rule="evenodd"/>
</clipPath>
<clipPath id="clip_98">
<path transform="matrix(1,0,0,-1,0,792)" d="M306.53 352.25H540.1V367.274H306.53Z" fill-rule="evenodd"/>
</clipPath>
<clipPath id="clip_99">
<path transform="matrix(1,0,0,-1,0,792)" d="M306.53 352.25H540.1V367.274H306.53Z" fill-rule="evenodd"/>
</clipPath>
<clipPath id="clip_100">
<path transform="matrix(1,0,0,-1,0,792)" d="M306.53 352.25H540.1V367.274H306.53Z" fill-rule="evenodd"/>
</clipPath>
<clipPath id="clip_101">
<path transform="matrix(1,0,0,-1,0,792)" d="M306.53 352.25H540.1V367.274H306.53Z" fill-rule="evenodd"/>
</clipPath>
</defs>
<g>
<g clip-path="url(#clip_0)">
<text xml:space="preserve" transform="matrix(1 0 -0 1 0 792)" font-size="12" font-family="Aptos"><tspan y="-340.49" x="72.024"> </tspan></text>
</g>
<g clip-path="url(#clip_1)">
<g clip-path="url(#clip_2)">
<g clip-path="url(#clip_3)">
<text xml:space="preserve" transform="matrix(1 0 -0 1 0 792)" font-size="12" font-family="Aptos,Bold" font-weight="bold"><tspan y="-727.44" x="77.664 86.304 92.928 103.596">Name</tspan></text>
</g>
<g clip-path="url(#clip_4)">
<text xml:space="preserve" transform="matrix(1 0 -0 1 0 792)" font-size="12" font-family="Aptos,Bold" font-weight="bold"><tspan y="-727.44" x="110.3"> </tspan></text>
</g>
</g>
<g clip-path="url(#clip_5)">
<g clip-path="url(#clip_6)">
<text xml:space="preserve" transform="matrix(1 0 -0 1 0 792)" font-size="12" font-family="Aptos,Bold" font-weight="bold"><tspan y="-727.44" x="311.69 318.05">1.</tspan></text>
</g>
<g clip-path="url(#clip_7)">
<text xml:space="preserve" transform="matrix(1 0 -0 1 0 792)" font-size="12" font-family="Aptos,Bold" font-weight="bold"><tspan y="-727.44" x="321.65 328.00999 331.61">3.1</tspan></text>
</g>
<g clip-path="url(#clip_8)">
<text xml:space="preserve" transform="matrix(1 0 -0 1 0 792)" font-size="12" font-family="Aptos,Bold" font-weight="bold"><tspan y="-727.44" x="338.11"> </tspan></text>
</g>
<g clip-path="url(#clip_9)">
<text xml:space="preserve" transform="matrix(1 0 -0 1 0 792)" font-size="12" font-family="Aptos,Bold" font-weight="bold"><tspan y="-727.44" x="340.51 346.978 353.686 360.75404 367.46205 371.89006 378.51405 382.81007 389.65007">Federator</tspan></text>
</g>
<g clip-path="url(#clip_10)">
<text xml:space="preserve" transform="matrix(1 0 -0 1 0 792)" font-size="12" font-family="Aptos,Bold" font-weight="bold"><tspan y="-727.44" x="394.03"> </tspan></text>
</g>
</g>
<path transform="matrix(1,0,0,-1,0,792)" d="M72.024 738.72H72.504009V739.19998H72.024Z" fill-rule="evenodd"/>
<path transform="matrix(1,0,0,-1,0,792)" d="M72.024 738.72H72.504009V739.19998H72.024Z" fill-rule="evenodd"/>
<path transform="matrix(1,0,0,-1,0,792)" d="M72.504 738.72H306.044V739.19998H72.504Z" fill-rule="evenodd"/>
<path transform="matrix(1,0,0,-1,0,792)" d="M306.05 738.72H306.53V739.19998H306.05Z" fill-rule="evenodd"/>
<path transform="matrix(1,0,0,-1,0,792)" d="M306.53 738.72H540.1V739.19998H306.53Z" fill-rule="evenodd"/>
<path transform="matrix(1,0,0,-1,0,792)" d="M540.1 738.72H540.57998V739.19998H540.1Z" fill-rule="evenodd"/>
<path transform="matrix(1,0,0,-1,0,792)" d="M540.1 738.72H540.57998V739.19998H540.1Z" fill-rule="evenodd"/>
<path transform="matrix(1,0,0,-1,0,792)" d="M72.024 723.72H72.504009V738.72H72.024Z" fill-rule="evenodd"/>
<path transform="matrix(1,0,0,-1,0,792)" d="M306.05 723.72H306.53V738.72H306.05Z" fill-rule="evenodd"/>
<path transform="matrix(1,0,0,-1,0,792)" d="M540.1 723.72H540.57998V738.72H540.1Z" fill-rule="evenodd"/>
<g clip-path="url(#clip_11)">
<g clip-path="url(#clip_12)">
<text xml:space="preserve" transform="matrix(1 0 -0 1 0 792)" font-size="12" font-family="Aptos,Bold" font-weight="bold"><tspan y="-711.96" x="77.664 84.972 91.956 96.384 103.44 110.28 116.508">Purpose</tspan></text>
</g>
<g clip-path="url(#clip_13)">
<text xml:space="preserve" transform="matrix(1 0 -0 1 0 792)" font-size="12" font-family="Aptos,Bold" font-weight="bold"><tspan y="-711.96" x="123.14"> </tspan></text>
</g>
</g>
<g clip-path="url(#clip_14)">
<g clip-path="url(#clip_15)">
<text xml:space="preserve" transform="matrix(1 0 -0 1 0 792)" font-size="12" font-family="Aptos"><tspan y="-711.96" x="311.69 319.958 322.82603 328.70603 335.43803 338.558 344.93003 350.30604 356.17405 358.61006 362.41407 369.02607 375.35008 377.78608 380.65409 387.26609 391.0941 397.4181 401.4261 408.0381 414.4101 417.49409 419.93009 426.23008 432.96208 443.16206 449.89405 456.51805 463.08204 469.40605 476.01805 479.89405 485.72605 488.16206 494.78605 498.36204 500.87004 504.74604 511.31004 517.63406">Displays the internal components of the </tspan></text>
</g>
<g clip-path="url(#clip_16)">
<text xml:space="preserve" transform="matrix(1 0 -0 1 0 792)" font-size="12" font-family="Aptos"><tspan y="-697.3" x="311.69">F</tspan></text>
</g>
<g clip-path="url(#clip_17)">
<text xml:space="preserve" transform="matrix(1 0 -0 1 0 792)" font-size="12" font-family="Aptos"><tspan y="-697.3" x="317.93 324.254 330.986 337.358 341.318 347.69 351.518 358.142 362.186 364.622 370.946 377.558 384.29 386.66603 393.37403 399.99803 408.614 411.05003 413.91804 417.84205 420.27806 426.57804 433.20204 443.402 453.602 460.31 466.922 469.79 476.15 482.522 486.35 492.674 498.578">ederator and how it communicates </tspan></text>
</g>
<g clip-path="url(#clip_18)">
<text xml:space="preserve" transform="matrix(1 0 -0 1 0 792)" font-size="12" font-family="Aptos"><tspan y="-682.66" x="311.69 314.558 321.17 324.782 331.406 335.33 345.52998 351.998 355.874 358.742 365.318 371.93 374.318 378.266 384.88999 387.266 393.88999 397.706 404.318 410.774 414.73399 417.16999 423.85398 430.322 434.38999 438.266 444.098 446.534 453.11 456.722 459.11 462.986 469.55 475.874 478.31 485.138 489.098 495.722 501.566 505.526 511.898 522.08609">information to other parts of the program.</tspan></text>
</g>
<g clip-path="url(#clip_19)">
<text xml:space="preserve" transform="matrix(1 0 -0 1 0 792)" font-size="12" font-family="Aptos"><tspan y="-682.66" x="525.82"> </tspan></text>
</g>
</g>
<path transform="matrix(1,0,0,-1,0,792)" d="M72.024 723.24H72.504009V723.72H72.024Z" fill-rule="evenodd"/>
<path transform="matrix(1,0,0,-1,0,792)" d="M72.504 723.24H306.044V723.72H72.504Z" fill-rule="evenodd"/>
<path transform="matrix(1,0,0,-1,0,792)" d="M306.05 723.24H306.53V723.72H306.05Z" fill-rule="evenodd"/>
<path transform="matrix(1,0,0,-1,0,792)" d="M306.53 723.24H540.1V723.72H306.53Z" fill-rule="evenodd"/>
<path transform="matrix(1,0,0,-1,0,792)" d="M540.1 723.24H540.57998V723.72H540.1Z" fill-rule="evenodd"/>
<path transform="matrix(1,0,0,-1,0,792)" d="M72.024 679.18H72.504009V723.244H72.024Z" fill-rule="evenodd"/>
<path transform="matrix(1,0,0,-1,0,792)" d="M306.05 679.18H306.53V723.244H306.05Z" fill-rule="evenodd"/>
<path transform="matrix(1,0,0,-1,0,792)" d="M540.1 679.18H540.57998V723.244H540.1Z" fill-rule="evenodd"/>
<g clip-path="url(#clip_20)">
<g clip-path="url(#clip_21)">
<text xml:space="preserve" transform="matrix(1 0 -0 1 0 792)" font-size="12" font-family="Aptos,Bold" font-weight="bold"><tspan y="-667.42" x="77.664 86.148 92.892009 99.12001 105.70801 110.13601 113.280017 120.348018 124.65601 127.87202 134.74802">Description</tspan></text>
</g>
<g clip-path="url(#clip_22)">
<text xml:space="preserve" transform="matrix(1 0 -0 1 0 792)" font-size="12" font-family="Aptos,Bold" font-weight="bold"><tspan y="-667.42" x="141.62"> </tspan></text>
</g>
</g>
<g clip-path="url(#clip_23)">
<g clip-path="url(#clip_24)">
<text xml:space="preserve" transform="matrix(1 0 -0 1 0 792)" font-size="12" font-family="Aptos"><tspan y="-667.42" x="311.69 317.438 324.05 330.39799">The </tspan></text>
</g>
<g clip-path="url(#clip_25)">
<text xml:space="preserve" transform="matrix(1 0 -0 1 0 792)" font-size="12" font-family="Aptos"><tspan y="-667.42" x="332.83">F</tspan></text>
</g>
<g clip-path="url(#clip_26)">
<text xml:space="preserve" transform="matrix(1 0 -0 1 0 792)" font-size="12" font-family="Aptos"><tspan y="-667.42" x="339.07 345.394 352.126 358.49803 362.458 368.83003 372.65803 379.282 383.32603 385.76203 389.686 396.01 402.394 408.71803 411.62205 417.04606 423.37007 429.25007 431.68608 438.37007 445.07807 451.43809 455.39808 458.26609 464.6261 470.4941 472.9301 476.4941 480.4541 487.0781 497.2541 499.6901 505.65409 512.2781 518.01406 520.882 527.242">ederator receives queries from Logic </tspan></text>
</g>
<g clip-path="url(#clip_27)">
<text xml:space="preserve" transform="matrix(1 0 -0 1 0 792)" font-size="12" font-family="Aptos"><tspan y="-652.78" x="311.69 318.314 324.926 327.29 333.15803 339.89 346.21403 352.586 355.454 359.066 361.93403 368.294 370.73 373.59803 380.21003 383.77403 390.398 394.334 404.534 410.906 414.734 417.60203 424.226 430.838 433.32203 439.93403 446.25804 452.63005 459.36204 465.68605 472.41804 475.89805 478.33406 481.20207 485.01808">on specific information needed, it </tspan></text>
</g>
<g clip-path="url(#clip_28)">
<text xml:space="preserve" transform="matrix(1 0 -0 1 0 792)" font-size="12" font-family="Aptos"><tspan y="-652.78" x="487.54 491.5 497.824 504.556 511.264 517.648 523.516 527.39199">requests</tspan></text>
</g>
<g clip-path="url(#clip_29)">
<text xml:space="preserve" transform="matrix(1 0 -0 1 0 792)" font-size="12" font-family="Aptos"><tspan y="-652.78" x="533.26"> </tspan></text>
</g>
<g clip-path="url(#clip_30)">
<text xml:space="preserve" transform="matrix(1 0 -0 1 0 792)" font-size="12" font-family="Aptos"><tspan y="-638.14" x="311.69 314.558 321.17 324.782 331.406 335.33 345.52998 351.998 355.874 358.742 365.318 371.93 374.318 378.026 381.986 388.61 398.78599 401.29399 405.16999 411.73399 418.05799 420.494 426.84199 432.22999 436.106 442.43 446.38999 453.00199 459.374">information from the external</tspan></text>
</g>
<g clip-path="url(#clip_31)">
<text xml:space="preserve" transform="matrix(1 0 -0 1 0 792)" font-size="12" font-family="Aptos"><tspan y="-638.14" x="462.58"> </tspan></text>
</g>
<g clip-path="url(#clip_32)">
<text xml:space="preserve" transform="matrix(1 0 -0 1 0 792)" font-size="12" font-family="Aptos"><tspan y="-638.14" x="464.98 471.712 478.16804 482.04405 488.36805">datab</tspan></text>
</g>
<g clip-path="url(#clip_33)">
<text xml:space="preserve" transform="matrix(1 0 -0 1 0 792)" font-size="12" font-family="Aptos"><tspan y="-638.14" x="495.1 501.47203 507.328 513.652 519.55599 521.99197 528.316 534.18399">ases as </tspan></text>
</g>
<g clip-path="url(#clip_34)">
<text xml:space="preserve" transform="matrix(1 0 -0 1 0 792)" font-size="12" font-family="Aptos"><tspan y="-623.5" x="311.69 320.342 326.66603 329.786 332.906 335.342 341.71403 347.54603 349.98204 353.81004 360.42204">well as the</tspan></text>
</g>
<g clip-path="url(#clip_35)">
<text xml:space="preserve" transform="matrix(1 0 -0 1 0 792)" font-size="12" font-family="Aptos"><tspan y="-623.5" x="366.79"> </tspan></text>
</g>
<g clip-path="url(#clip_36)">
<text xml:space="preserve" transform="matrix(1 0 -0 1 0 792)" font-size="12" font-family="Aptos"><tspan y="-623.5" x="369.19 372.058 378.67 382.54603 388.87004 392.83003 399.44203 405.81404 409.01805">internal </tspan></text>
</g>
<g clip-path="url(#clip_37)">
<text xml:space="preserve" transform="matrix(1 0 -0 1 0 792)" font-size="12" font-family="Aptos"><tspan y="-623.5" x="411.43 417.298 423.646 430.258 436.582 443.314 450.022 453.142 456.01 462.622 468.43003 470.80604 477.53804 483.91004 487.72605 494.09806 500.83006 507.16606 513.03408">scheduling database</tspan></text>
</g>
<g clip-path="url(#clip_38)">
<text xml:space="preserve" transform="matrix(1 0 -0 1 0 792)" font-size="12" font-family="Aptos"><tspan y="-623.5" x="519.46 522.94">, </tspan></text>
</g>
<g clip-path="url(#clip_39)">
<text xml:space="preserve" transform="matrix(1 0 -0 1 0 792)" font-size="12" font-family="Aptos"><tspan y="-608.86" x="311.69 315.302 321.926 325.84999 336.04997 342.51799 346.39399 352.22599">formats </tspan></text>
</g>
<g clip-path="url(#clip_40)">
<text xml:space="preserve" transform="matrix(1 0 -0 1 0 792)" font-size="12" font-family="Aptos"><tspan y="-608.86" x="354.67 358.54603 365.11003 371.43403 373.87004 376.73805 383.35005 386.96205 393.65803 397.618 407.818 414.19 418.018 420.88603">the informatio</tspan></text>
</g>
<g clip-path="url(#clip_41)">
<text xml:space="preserve" transform="matrix(1 0 -0 1 0 792)" font-size="12" font-family="Aptos"><tspan y="-608.86" x="427.63">n</tspan></text>
</g>
<g clip-path="url(#clip_42)">
<text xml:space="preserve" transform="matrix(1 0 -0 1 0 792)" font-size="12" font-family="Aptos"><tspan y="-608.86" x="434.35 437.81803 440.25404 446.57804 453.19004 459.92204 462.29804 466.25804 472.58204 476.45805 483.16606 487.17405 493.73805 499.60606 502.04206 504.99409 508.8701 511.2341 515.1101 521.7821">, and returns it to </tspan></text>
</g>
<g clip-path="url(#clip_43)">
<text xml:space="preserve" transform="matrix(1 0 -0 1 0 792)" font-size="12" font-family="Aptos"><tspan y="-594.22" x="311.69 317.69 324.314 330.05003 332.91804 339.278 342.74604 345.18205 348.26603 352.14204 354.50605 360.87806 363.99806 369.85404 376.47804 378.85404 382.81404 389.13804 395.52204 401.84605 404.75007 410.17408 416.49809 422.37809 424.8141 430.5381 436.88609 443.49809 449.82209 456.55409 463.2621 466.38209 472.7541 478.6221 481.0581 484.6221 488.5821 495.2061 505.38209">Logic. It also receives schedules from </tspan></text>
</g>
<g clip-path="url(#clip_44)">
<text xml:space="preserve" transform="matrix(1 0 -0 1 0 792)" font-size="12" font-family="Aptos"><tspan y="-579.58" x="311.69 317.69 324.314 330.05003 332.91804 339.278 341.71403 348.03804 354.65003 361.38203 363.75804 369.62605 373.50205 380.06605 384.02604 390.35005 396.25404 398.69004 402.49406 409.20207 415.82606 421.65806 428.03007 430.46607 433.33409 439.94609 442.3101 446.1861 452.7501 459.0741 461.5101 468.3381 474.6861 481.2981 487.6221 494.3541 501.0621 504.1821 507.0501 513.6621 519.4701">Logic and stores those in the Scheduling </tspan></text>
</g>
<g clip-path="url(#clip_45)">
<text xml:space="preserve" transform="matrix(1 0 -0 1 0 792)" font-size="12" font-family="Aptos"><tspan y="-564.94" x="311.69 319.958 326.33003 330.15803 336.53004 343.26203 349.59803 355.46604 361.79005">Database.</tspan></text>
</g>
<g clip-path="url(#clip_46)">
<text xml:space="preserve" transform="matrix(1 0 -0 1 0 792)" font-size="12" font-family="Aptos"><tspan y="-564.94" x="365.23"> </tspan></text>
</g>
</g>
<path transform="matrix(1,0,0,-1,0,792)" d="M72.024 678.7H72.504009V679.18H72.024Z" fill-rule="evenodd"/>
<path transform="matrix(1,0,0,-1,0,792)" d="M72.504 678.7H306.044V679.18H72.504Z" fill-rule="evenodd"/>
<path transform="matrix(1,0,0,-1,0,792)" d="M306.05 678.7H306.53V679.18H306.05Z" fill-rule="evenodd"/>
<path transform="matrix(1,0,0,-1,0,792)" d="M306.53 678.7H540.1V679.18H306.53Z" fill-rule="evenodd"/>
<path transform="matrix(1,0,0,-1,0,792)" d="M540.1 678.7H540.57998V679.18H540.1Z" fill-rule="evenodd"/>
<path transform="matrix(1,0,0,-1,0,792)" d="M72.024 561.58H72.504009V678.7H72.024Z" fill-rule="evenodd"/>
<path transform="matrix(1,0,0,-1,0,792)" d="M306.05 561.58H306.53V678.7H306.05Z" fill-rule="evenodd"/>
<path transform="matrix(1,0,0,-1,0,792)" d="M540.1 561.58H540.57998V678.7H540.1Z" fill-rule="evenodd"/>
<g clip-path="url(#clip_47)">
<g clip-path="url(#clip_48)">
<text xml:space="preserve" transform="matrix(1 0 -0 1 0 792)" font-size="12" font-family="Aptos,Bold" font-weight="bold"><tspan y="-549.82" x="77.664 85.22401 91.932018 99.000019 105.98402 109.20002 113.62802 120.348018 131.01602 137.73603 144.57602 148.88402">Requirements</tspan></text>
</g>
<g clip-path="url(#clip_49)">
<text xml:space="preserve" transform="matrix(1 0 -0 1 0 792)" font-size="12" font-family="Aptos,Bold" font-weight="bold"><tspan y="-549.82" x="155.06"> </tspan></text>
</g>
</g>
<g clip-path="url(#clip_50)">
<g clip-path="url(#clip_51)">
<text xml:space="preserve" transform="matrix(1 0 -0 1 0 792)" font-size="12" font-family="Aptos"><tspan y="-549.82" x="311.69 318.05 321.518 327.878 330.314 336.27799 342.90199 348.638 351.506 357.866 361.334 363.77003 370.094 373.562 379.922 383.39 389.75 392.186 398.858 404.162 407.99 414.458 418.418 425.03 431.48603 434.60603 437.006 445.27403 451.64604 455.47404 461.84605 468.57804 474.91404 480.78205 487.10606 490.61006 493.04606 499.37004 502.83805 509.19804 512.666 519.02609">1.2 Logic, 1.3.2 External Database, 1.3.3 </tspan></text>
</g>
<g clip-path="url(#clip_52)">
<text xml:space="preserve" transform="matrix(1 0 -0 1 0 792)" font-size="12" font-family="Aptos"><tspan y="-535.03" x="311.69 318.518 324.866 331.478 337.802 344.534 351.242 354.362 357.23 363.842 369.65003 372.02604 380.29405 386.66606 390.49406 396.86607 403.59806 409.93406 415.80207">Scheduling Database</tspan></text>
</g>
<g clip-path="url(#clip_53)">
<text xml:space="preserve" transform="matrix(1 0 -0 1 0 792)" font-size="12" font-family="Aptos"><tspan y="-535.03" x="422.11"> </tspan></text>
</g>
</g>
<path transform="matrix(1,0,0,-1,0,792)" d="M72.024 561.1H72.504009V561.57998H72.024Z" fill-rule="evenodd"/>
<path transform="matrix(1,0,0,-1,0,792)" d="M72.504 561.1H306.044V561.57998H72.504Z" fill-rule="evenodd"/>
<path transform="matrix(1,0,0,-1,0,792)" d="M306.05 561.1H306.53V561.57998H306.05Z" fill-rule="evenodd"/>
<path transform="matrix(1,0,0,-1,0,792)" d="M306.53 561.1H540.1V561.57998H306.53Z" fill-rule="evenodd"/>
<path transform="matrix(1,0,0,-1,0,792)" d="M540.1 561.1H540.57998V561.57998H540.1Z" fill-rule="evenodd"/>
<path transform="matrix(1,0,0,-1,0,792)" d="M72.024 531.67H72.504009V561.094H72.024Z" fill-rule="evenodd"/>
<path transform="matrix(1,0,0,-1,0,792)" d="M306.05 531.67H306.53V561.094H306.05Z" fill-rule="evenodd"/>
<path transform="matrix(1,0,0,-1,0,792)" d="M540.1 531.67H540.57998V561.094H540.1Z" fill-rule="evenodd"/>
<g clip-path="url(#clip_54)">
<g clip-path="url(#clip_55)">
<text xml:space="preserve" transform="matrix(1 0 -0 1 0 792)" font-size="12" font-family="Aptos,Bold" font-weight="bold"><tspan y="-519.91" x="77.664 84.504 88.092 94.80001 105.46801 112.18801 119.13601 123.348018">Elements</tspan></text>
</g>
<g clip-path="url(#clip_56)">
<text xml:space="preserve" transform="matrix(1 0 -0 1 0 792)" font-size="12" font-family="Aptos,Bold" font-weight="bold"><tspan y="-519.91" x="129.5"> </tspan></text>
</g>
</g>
<g clip-path="url(#clip_57)">
<g clip-path="url(#clip_58)">
<text xml:space="preserve" transform="matrix(1 0 -0 1 0 792)" font-size="12" font-family="Aptos"><tspan y="-519.91" x="311.69 318.05 321.518 327.878 331.346 337.706 341.174 347.534 349.97 358.694 365.402 371.76203 375.72203 381.14604 383.52204 393.11006 399.48207 406.09407 412.43006 418.19007 424.51408">1.3.1.1 Query Manager</tspan></text>
</g>
<g clip-path="url(#clip_59)">
<text xml:space="preserve" transform="matrix(1 0 -0 1 0 792)" font-size="12" font-family="Aptos"><tspan y="-519.91" x="428.59 432.178 434.614 443.09803 449.47004 456.08204 462.778 465.898 472.22203 478.126 480.562 486.88603 490.006 493.126 495.526 502.258 508.966 515.29">. Handles all quer</tspan></text>
</g>
<g clip-path="url(#clip_60)">
<text xml:space="preserve" transform="matrix(1 0 -0 1 0 792)" font-size="12" font-family="Aptos"><tspan y="-519.91" x="519.34 522.208 528.568 534.436">ies </tspan></text>
</g>
<g clip-path="url(#clip_61)">
<text xml:space="preserve" transform="matrix(1 0 -0 1 0 792)" font-size="12" font-family="Aptos"><tspan y="-505.27" x="311.69 315.302 319.25 325.874 336.05 338.486 344.55799 351.18199 356.918 359.786">from Logic</tspan></text>
</g>
<g clip-path="url(#clip_62)">
<text xml:space="preserve" transform="matrix(1 0 -0 1 0 792)" font-size="12" font-family="Aptos"><tspan y="-505.27" x="366.19"> </tspan></text>
</g>
</g>
<path transform="matrix(1,0,0,-1,0,792)" d="M72.024 531.19H72.504009V531.67H72.024Z" fill-rule="evenodd"/>
<path transform="matrix(1,0,0,-1,0,792)" d="M72.504 531.19H306.044V531.67H72.504Z" fill-rule="evenodd"/>
<path transform="matrix(1,0,0,-1,0,792)" d="M306.05 531.19H306.53V531.67H306.05Z" fill-rule="evenodd"/>
<path transform="matrix(1,0,0,-1,0,792)" d="M306.53 531.19H540.1V531.67H306.53Z" fill-rule="evenodd"/>
<path transform="matrix(1,0,0,-1,0,792)" d="M540.1 531.19H540.57998V531.67H540.1Z" fill-rule="evenodd"/>
<path transform="matrix(1,0,0,-1,0,792)" d="M72.024 501.91H72.504009V531.19H72.024Z" fill-rule="evenodd"/>
<path transform="matrix(1,0,0,-1,0,792)" d="M306.05 501.91H306.53V531.19H306.05Z" fill-rule="evenodd"/>
<path transform="matrix(1,0,0,-1,0,792)" d="M540.1 501.91H540.57998V531.19H540.1Z" fill-rule="evenodd"/>
<g clip-path="url(#clip_63)">
<g clip-path="url(#clip_64)">
<text xml:space="preserve" transform="matrix(1 0 -0 1 0 792)" font-size="12" font-family="Aptos"><tspan y="-490.15" x="311.69 318.05 321.518 327.878">1.3.</tspan></text>
</g>
<g clip-path="url(#clip_65)">
<text xml:space="preserve" transform="matrix(1 0 -0 1 0 792)" font-size="12" font-family="Aptos"><tspan y="-490.15" x="331.39 337.75 340.186 346.978 353.33799 359.94999 366.274 373.00599 379.714 382.83399 385.702 392.314 398.122 400.49803 408.76603 415.13804 418.96604 425.33805 432.15406 438.52607 444.38206 450.70606 454.21006 456.64607 467.29008 473.90208 480.22608 484.23408 490.55809">2 Scheduling Database. Where </tspan></text>
</g>
<g clip-path="url(#clip_66)">
<text xml:space="preserve" transform="matrix(1 0 -0 1 0 792)" font-size="12" font-family="Aptos"><tspan y="-490.15" x="493.06 499.432 502.552 505.672">all </tspan></text>
</g>
<g clip-path="url(#clip_67)">
<text xml:space="preserve" transform="matrix(1 0 -0 1 0 792)" font-size="12" font-family="Aptos"><tspan y="-475.51" x="311.69 317.558 323.906 330.518 336.842 343.574 350.282 353.402 359.66603 365.53404">schedules </tspan></text>
</g>
<g clip-path="url(#clip_68)">
<text xml:space="preserve" transform="matrix(1 0 -0 1 0 792)" font-size="12" font-family="Aptos"><tspan y="-475.51" x="367.99 374.33799 378.29798 384.62199 390.994 394.87 401.194 407.926 410.362 416.698 420.658 426.982 429.418 435.286 439.16203 445.726 449.686 456.01 462.742 465.178 468.79 475.366 479.434 481.87 485.434 492.142 496.018">created are stored for futu</tspan></text>
</g>
<g clip-path="url(#clip_69)">
<text xml:space="preserve" transform="matrix(1 0 -0 1 0 792)" font-size="12" font-family="Aptos"><tspan y="-475.51" x="502.78 506.74 513.06399">re </tspan></text>
</g>
<g clip-path="url(#clip_70)">
<text xml:space="preserve" transform="matrix(1 0 -0 1 0 792)" font-size="12" font-family="Aptos"><tspan y="-460.87" x="311.69 318.398 324.278 330.60203">use.</tspan></text>
</g>
<g clip-path="url(#clip_71)">
<text xml:space="preserve" transform="matrix(1 0 -0 1 0 792)" font-size="12" font-family="Aptos"><tspan y="-460.87" x="334.03"> </tspan></text>
</g>
</g>
<path transform="matrix(1,0,0,-1,0,792)" d="M72.024 501.43H72.504009V501.90998H72.024Z" fill-rule="evenodd"/>
<path transform="matrix(1,0,0,-1,0,792)" d="M306.05 501.43H306.53V501.90998H306.05Z" fill-rule="evenodd"/>
<path transform="matrix(1,0,0,-1,0,792)" d="M306.53 501.43H540.1V501.90998H306.53Z" fill-rule="evenodd"/>
<path transform="matrix(1,0,0,-1,0,792)" d="M540.1 501.43H540.57998V501.90998H540.1Z" fill-rule="evenodd"/>
<path transform="matrix(1,0,0,-1,0,792)" d="M72.024 457.51H72.504009V501.43H72.024Z" fill-rule="evenodd"/>
<path transform="matrix(1,0,0,-1,0,792)" d="M306.05 457.51H306.53V501.43H306.05Z" fill-rule="evenodd"/>
<path transform="matrix(1,0,0,-1,0,792)" d="M540.1 457.51H540.57998V501.43H540.1Z" fill-rule="evenodd"/>
<g clip-path="url(#clip_72)">
<g clip-path="url(#clip_73)">
<text xml:space="preserve" transform="matrix(1 0 -0 1 0 792)" font-size="12" font-family="Aptos"><tspan y="-445.75" x="311.69 318.05 321.518 327.878">1.3.</tspan></text>
</g>
<g clip-path="url(#clip_74)">
<text xml:space="preserve" transform="matrix(1 0 -0 1 0 792)" font-size="12" font-family="Aptos"><tspan y="-445.75" x="331.39">3</tspan></text>
</g>
<g clip-path="url(#clip_75)">
<text xml:space="preserve" transform="matrix(1 0 -0 1 0 792)" font-size="12" font-family="Aptos"><tspan y="-445.75" x="337.75"> </tspan></text>
</g>
<g clip-path="url(#clip_76)">
<text xml:space="preserve" transform="matrix(1 0 -0 1 0 792)" font-size="12" font-family="Aptos"><tspan y="-445.75" x="340.15 346.858 352.162 355.978 362.302 366.31 372.922 379.294 382.486 384.922 393.154 399.526 403.366 409.738">External Datab</tspan></text>
</g>
<g clip-path="url(#clip_77)">
<text xml:space="preserve" transform="matrix(1 0 -0 1 0 792)" font-size="12" font-family="Aptos"><tspan y="-445.75" x="416.47 422.842 428.81803 435.14204 438.64604 441.08204 451.72605 458.33805 464.66206 468.67005 474.99406 477.43006 483.76606 486.88606 490.00605">ase. Where all </tspan></text>
</g>
<g clip-path="url(#clip_78)">
<text xml:space="preserve" transform="matrix(1 0 -0 1 0 792)" font-size="12" font-family="Aptos"><tspan y="-430.99" x="311.69 314.558 321.17 324.782 331.406 335.33 345.52998 351.998 355.874 358.742 365.318 371.93 374.318 378.026 381.986 388.61 398.78599 401.222 407.546 412.934 416.81 423.134 427.094 433.802 440.174 443.294 445.682 451.55003 458.174 464.88203 468.83003 475.178 481.502 487.406 489.842 492.71003 498.54203">information from external sources is </tspan></text>
</g>
<g clip-path="url(#clip_79)">
<text xml:space="preserve" transform="matrix(1 0 -0 1 0 792)" font-size="12" font-family="Aptos"><tspan y="-416.35" x="311.69 317.558 321.43403 327.99803 331.958 338.282">stored</tspan></text>
</g>
<g clip-path="url(#clip_80)">
<text xml:space="preserve" transform="matrix(1 0 -0 1 0 792)" font-size="12" font-family="Aptos"><tspan y="-416.35" x="345.07">.</tspan></text>
</g>
<g clip-path="url(#clip_81)">
<text xml:space="preserve" transform="matrix(1 0 -0 1 0 792)" font-size="12" font-family="Aptos"><tspan y="-416.35" x="348.55"> </tspan></text>
</g>
</g>
<path transform="matrix(1,0,0,-1,0,792)" d="M72.024 457.03H72.504009V457.51H72.024Z" fill-rule="evenodd"/>
<path transform="matrix(1,0,0,-1,0,792)" d="M306.05 457.03H306.53V457.51H306.05Z" fill-rule="evenodd"/>
<path transform="matrix(1,0,0,-1,0,792)" d="M306.53 457.03H540.1V457.51H306.53Z" fill-rule="evenodd"/>
<path transform="matrix(1,0,0,-1,0,792)" d="M540.1 457.03H540.57998V457.51H540.1Z" fill-rule="evenodd"/>
<path transform="matrix(1,0,0,-1,0,792)" d="M72.024 412.99H72.504009V457.03H72.024Z" fill-rule="evenodd"/>
<path transform="matrix(1,0,0,-1,0,792)" d="M306.05 412.99H306.53V457.03H306.05Z" fill-rule="evenodd"/>
<path transform="matrix(1,0,0,-1,0,792)" d="M540.1 412.99H540.57998V457.03H540.1Z" fill-rule="evenodd"/>
<g clip-path="url(#clip_82)">
<g clip-path="url(#clip_83)">
<text xml:space="preserve" transform="matrix(1 0 -0 1 0 792)" font-size="12" font-family="Aptos"><tspan y="-401.23" x="311.69 318.05 321.518 327.878 330.314 336.27799 342.90199 348.638 351.506 357.866 361.334 363.77003 369.518 376.094 382.418 384.854 391.202 397.826 408.00199 414.73399 421.35798 427.92198 434.38999 441.00199 444.83 447.266 451.07">1.2 Logic. The component th</tspan></text>
</g>
<g clip-path="url(#clip_84)">
<text xml:space="preserve" transform="matrix(1 0 -0 1 0 792)" font-size="12" font-family="Aptos"><tspan y="-401.23" x="457.75 464.21803 468.09403 470.45805 476.80604 483.43003 493.60603 500.338 507.04603 510.88603 517.21 523.114">at computes </tspan></text>
</g>
<g clip-path="url(#clip_85)">
<text xml:space="preserve" transform="matrix(1 0 -0 1 0 792)" font-size="12" font-family="Aptos"><tspan y="-386.59" x="311.69 315.566 322.13 328.454 330.89 336.75804 343.10603">the sch</tspan></text>
</g>
<g clip-path="url(#clip_86)">
<text xml:space="preserve" transform="matrix(1 0 -0 1 0 792)" font-size="12" font-family="Aptos"><tspan y="-386.59" x="349.75 356.074 362.806 369.514 372.634 379.018 384.88603 387.32203 390.88603 397.51 401.446 403.88203 407.68605 414.29804 420.62205 423.05805 428.91404 432.79005 439.49806 446.19404 452.51805 459.13005">edules for the student</tspan></text>
</g>
<g clip-path="url(#clip_87)">
<text xml:space="preserve" transform="matrix(1 0 -0 1 0 792)" font-size="12" font-family="Aptos"><tspan y="-386.59" x="463.06 468.94">s.</tspan></text>
</g>
<g clip-path="url(#clip_88)">
<text xml:space="preserve" transform="matrix(1 0 -0 1 0 792)" font-size="12" font-family="Aptos"><tspan y="-386.59" x="472.3"> </tspan></text>
</g>
</g>
<path transform="matrix(1,0,0,-1,0,792)" d="M72.024 412.51H72.504009V412.99003H72.024Z" fill-rule="evenodd"/>
<path transform="matrix(1,0,0,-1,0,792)" d="M306.05 412.51H306.53V412.99003H306.05Z" fill-rule="evenodd"/>
<path transform="matrix(1,0,0,-1,0,792)" d="M306.53 412.51H540.1V412.99003H306.53Z" fill-rule="evenodd"/>
<path transform="matrix(1,0,0,-1,0,792)" d="M540.1 412.51H540.57998V412.99003H540.1Z" fill-rule="evenodd"/>
<path transform="matrix(1,0,0,-1,0,792)" d="M72.024 383.23H72.504009V412.51H72.024Z" fill-rule="evenodd"/>
<path transform="matrix(1,0,0,-1,0,792)" d="M306.05 383.23H306.53V412.51H306.05Z" fill-rule="evenodd"/>
<path transform="matrix(1,0,0,-1,0,792)" d="M540.1 383.23H540.57998V412.51H540.1Z" fill-rule="evenodd"/>
<g clip-path="url(#clip_89)">
<g clip-path="url(#clip_90)">
<text xml:space="preserve" transform="matrix(1 0 -0 1 0 792)" font-size="12" font-family="Aptos,Bold" font-weight="bold"><tspan y="-371.47" x="77.664 85.22401 91.932018 96.00001 102.708019 107.13602 113.85601 120.69601 127.284008 134.00402 141.072 143.50801 150.936">Referenced By</tspan></text>
</g>
<g clip-path="url(#clip_91)">
<text xml:space="preserve" transform="matrix(1 0 -0 1 0 792)" font-size="12" font-family="Aptos,Bold" font-weight="bold"><tspan y="-371.47" x="156.74"> </tspan></text>
</g>
</g>
<g clip-path="url(#clip_92)">
<g clip-path="url(#clip_93)">
<text xml:space="preserve" transform="matrix(1 0 -0 1 0 792)" font-size="12" font-family="Aptos"><tspan y="-371.47" x="311.69 318.05 321.518 327.878 330.314 337.106 340.982 347.55799 351.51799 357.986 363.746">1.3 Storage</tspan></text>
</g>
<g clip-path="url(#clip_94)">
<text xml:space="preserve" transform="matrix(1 0 -0 1 0 792)" font-size="12" font-family="Aptos"><tspan y="-371.47" x="370.27"> </tspan></text>
</g>
</g>
<path transform="matrix(1,0,0,-1,0,792)" d="M72.024 382.75H72.504009V383.23H72.024Z" fill-rule="evenodd"/>
<path transform="matrix(1,0,0,-1,0,792)" d="M72.504 382.75H306.044V383.23H72.504Z" fill-rule="evenodd"/>
<path transform="matrix(1,0,0,-1,0,792)" d="M306.05 382.75H306.53V383.23H306.05Z" fill-rule="evenodd"/>
<path transform="matrix(1,0,0,-1,0,792)" d="M306.53 382.75H540.1V383.23H306.53Z" fill-rule="evenodd"/>
<path transform="matrix(1,0,0,-1,0,792)" d="M540.1 382.75H540.57998V383.23H540.1Z" fill-rule="evenodd"/>
<path transform="matrix(1,0,0,-1,0,792)" d="M72.024 367.75H72.504009V382.75H72.024Z" fill-rule="evenodd"/>
<path transform="matrix(1,0,0,-1,0,792)" d="M306.05 367.75H306.53V382.75H306.05Z" fill-rule="evenodd"/>
<path transform="matrix(1,0,0,-1,0,792)" d="M540.1 367.75H540.57998V382.75H540.1Z" fill-rule="evenodd"/>
<g clip-path="url(#clip_95)">
<g clip-path="url(#clip_96)">
<text xml:space="preserve" transform="matrix(1 0 -0 1 0 792)" font-size="12" font-family="Aptos,Bold" font-weight="bold"><tspan y="-355.97" x="77.664 85.092 88.30801 95.04001 104.17201 111.22801 118.06801 121.28401 128.14801">Viewpoint</tspan></text>
</g>
<g clip-path="url(#clip_97)">
<text xml:space="preserve" transform="matrix(1 0 -0 1 0 792)" font-size="12" font-family="Aptos,Bold" font-weight="bold"><tspan y="-355.97" x="132.38"> </tspan></text>
</g>
</g>
<g clip-path="url(#clip_98)">
<g clip-path="url(#clip_99)">
<text xml:space="preserve" transform="matrix(1 0 -0 1 0 792)" font-size="12" font-family="Aptos"><tspan y="-355.97" x="311.69 319.862 329.342 335.342">UML </tspan></text>
</g>
<g clip-path="url(#clip_100)">
<text xml:space="preserve" transform="matrix(1 0 -0 1 0 792)" font-size="12" font-family="Aptos"><tspan y="-355.97" x="337.75 346.05403 352.63 362.83 369.56199 376.25798 382.86997 389.19398 395.80598 399.68199 402.05799 410.326 413.194 419.566 425.43403 429.502 435.87403">Component Diagram</tspan></text>
</g>
<g clip-path="url(#clip_101)">
<text xml:space="preserve" transform="matrix(1 0 -0 1 0 792)" font-size="12" font-family="Aptos"><tspan y="-355.97" x="446.11"> </tspan></text>
</g>
</g>
<path transform="matrix(1,0,0,-1,0,792)" d="M72.024 367.27H72.504009V367.74998H72.024Z" fill-rule="evenodd"/>
<path transform="matrix(1,0,0,-1,0,792)" d="M72.504 367.27H306.044V367.74998H72.504Z" fill-rule="evenodd"/>
<path transform="matrix(1,0,0,-1,0,792)" d="M306.05 367.27H306.53V367.74998H306.05Z" fill-rule="evenodd"/>
<path transform="matrix(1,0,0,-1,0,792)" d="M306.53 367.27H540.1V367.74998H306.53Z" fill-rule="evenodd"/>
<path transform="matrix(1,0,0,-1,0,792)" d="M540.1 367.27H540.57998V367.74998H540.1Z" fill-rule="evenodd"/>
<path transform="matrix(1,0,0,-1,0,792)" d="M72.024 352.25H72.504009V367.274H72.024Z" fill-rule="evenodd"/>
<path transform="matrix(1,0,0,-1,0,792)" d="M72.024 351.77H72.504009V352.24998H72.024Z" fill-rule="evenodd"/>
<path transform="matrix(1,0,0,-1,0,792)" d="M72.024 351.77H72.504009V352.24998H72.024Z" fill-rule="evenodd"/>
<path transform="matrix(1,0,0,-1,0,792)" d="M72.504 351.77H306.044V352.24998H72.504Z" fill-rule="evenodd"/>
<path transform="matrix(1,0,0,-1,0,792)" d="M306.05 352.25H306.53V367.274H306.05Z" fill-rule="evenodd"/>
<path transform="matrix(1,0,0,-1,0,792)" d="M306.05 351.77H306.53V352.24998H306.05Z" fill-rule="evenodd"/>
<path transform="matrix(1,0,0,-1,0,792)" d="M306.53 351.77H540.1V352.24998H306.53Z" fill-rule="evenodd"/>
<path transform="matrix(1,0,0,-1,0,792)" d="M540.1 352.25H540.57998V367.274H540.1Z" fill-rule="evenodd"/>
<path transform="matrix(1,0,0,-1,0,792)" d="M540.1 351.77H540.57998V352.24998H540.1Z" fill-rule="evenodd"/>
<path transform="matrix(1,0,0,-1,0,792)" d="M540.1 351.77H540.57998V352.24998H540.1Z" fill-rule="evenodd"/>
</g>
</g>
</svg>
